<svg xmlns="http://www.w3.org/2000/svg" viewBox="0 0 512 512" role="img" aria-label="Lion">
  <defs>
    <linearGradient id="m" x1="0" x2="1" y1="0" y2="1">
      <stop offset="0" stop-color="#ff2d8b"/>
      <stop offset="0.45" stop-color="#ff8a00"/>
      <stop offset="1" stop-color="#00d4ff"/>
    </linearGradient>
  </defs>
  <circle cx="256" cy="256" r="210" fill="url(#m)" opacity="0.95"/>
  <circle cx="256" cy="256" r="150" fill="#111827" opacity="0.92"/>
  <path d="M256 164c-42 0-76 34-76 76v12c0 58 34 106 76 106s76-48 76-106v-12c0-42-34-76-76-76z" fill="#fbbf24"/>
  <path d="M210 246c10-10 20-16 46-16s36 6 46 16" stroke="#111827" stroke-width="10" stroke-linecap="round" fill="none"/>
  <circle cx="232" cy="252" r="8" fill="#111827"/>
  <circle cx="280" cy="252" r="8" fill="#111827"/>
  <path d="M256 268l-14 16c-3 3-1 8 4 8h20c5 0 7-5 4-8l-14-16z" fill="#111827"/>
  <path d="M226 306c10 14 22 20 30 22 8-2 20-8 30-22" stroke="#111827" stroke-width="10" stroke-linecap="round" fill="none"/>
</svg>
